<svg width="12" height="9" viewBox="0 0 12 9" fill="none" xmlns="http://www.w3.org/2000/svg">
<path d="M10.2929 4L7.14645 0.853553C6.95118 0.658292 6.95118 0.341708 7.14645 0.146446C7.34171 -0.048816 7.65829 -0.0488161 7.85355 0.146446L11.8536 4.14645C12.0488 4.34171 12.0488 4.65829 11.8536 4.85355L7.85355 8.85355C7.65829 9.04882 7.34171 9.04882 7.14645 8.85355C6.95118 8.65829 6.95118 8.34171 7.14645 8.14645L10.2929 5L0.5 5C0.223857 5 -1.84631e-07 4.77614 -1.96701e-07 4.5C-2.08772e-07 4.22386 0.223857 4 0.5 4L10.2929 4Z" fill="white"/>
</svg>
