<svg width="48" height="18" viewBox="0 0 48 18" fill="none" xmlns="http://www.w3.org/2000/svg">
<path d="M1.33333 2C0.596954 2 0 1.55228 0 1C0 0.447715 0.596954 0 1.33333 0H46.6667C47.403 0 48 0.447715 48 1C48 1.55228 47.403 2 46.6667 2H1.33333ZM1.33333 10C0.596954 10 0 9.55229 0 9C0 8.44771 0.596954 8 1.33333 8H46.6667C47.403 8 48 8.44771 48 9C48 9.55229 47.403 10 46.6667 10H1.33333ZM1.33333 18C0.596954 18 0 17.5523 0 17C0 16.4477 0.596954 16 1.33333 16H46.6667C47.403 16 48 16.4477 48 17C48 17.5523 47.403 18 46.6667 18H1.33333Z" fill="#295CD6"/>
</svg>
