<svg width="24" height="24" viewBox="0 0 24 24" fill="none" xmlns="http://www.w3.org/2000/svg">
<path d="M11.999 7.37695C9.44498 7.37695 7.37598 9.44695 7.37598 12C7.37598 14.554 9.44498 16.624 11.999 16.624C14.551 16.624 16.622 14.554 16.622 12C16.622 9.44695 14.551 7.37695 11.999 7.37695ZM11.999 15.004C10.34 15.004 8.99498 13.659 8.99498 12.001C8.99498 10.342 10.34 8.99795 11.999 8.99795C13.658 8.99795 15.001 10.342 15.001 12.001C15.001 13.659 13.658 15.004 11.999 15.004Z" fill="#8F9BB3"/>
<path d="M16.8046 8.28491C17.3999 8.28491 17.8826 7.80227 17.8826 7.20691C17.8826 6.61154 17.3999 6.12891 16.8046 6.12891C16.2092 6.12891 15.7266 6.61154 15.7266 7.20691C15.7266 7.80227 16.2092 8.28491 16.8046 8.28491Z" fill="#8F9BB3"/>
<path d="M20.5349 6.11088C20.0659 4.90188 19.1109 3.94588 17.9019 3.47888C17.2029 3.21588 16.4639 3.07488 15.7159 3.05888C14.7529 3.01688 14.4479 3.00488 12.0059 3.00488C9.56391 3.00488 9.25091 3.00488 8.29591 3.05888C7.54991 3.07388 6.81091 3.21488 6.11191 3.47888C4.90191 3.94588 3.94691 4.90188 3.47891 6.11088C3.21591 6.81088 3.07491 7.54888 3.05991 8.29688C3.01691 9.25888 3.00391 9.56388 3.00391 12.0069C3.00391 14.4489 3.00391 14.7599 3.05991 15.7169C3.07491 16.4649 3.21591 17.2029 3.47891 17.9039C3.94791 19.1119 4.90291 20.0679 6.11291 20.5359C6.80891 20.8079 7.54791 20.9619 8.29791 20.9859C9.26091 21.0279 9.56591 21.0409 12.0079 21.0409C14.4499 21.0409 14.7629 21.0409 15.7179 20.9859C16.4649 20.9709 17.2039 20.8289 17.9039 20.5669C19.1129 20.0979 20.0679 19.1429 20.5369 17.9339C20.7999 17.2339 20.9409 16.4959 20.9559 15.7479C20.9989 14.7859 21.0119 14.4809 21.0119 12.0379C21.0119 9.59488 21.0119 9.28488 20.9559 8.32788C20.9429 7.56988 20.8029 6.81888 20.5349 6.11088ZM19.3169 15.6429C19.3099 16.2189 19.2059 16.7899 19.0059 17.3309C18.7009 18.1179 18.0799 18.7399 17.2939 19.0419C16.7589 19.2409 16.1949 19.3449 15.6239 19.3529C14.6739 19.3969 14.4059 19.4079 11.9699 19.4079C9.53191 19.4079 9.28291 19.4079 8.31491 19.3529C7.74591 19.3459 7.17991 19.2409 6.64591 19.0419C5.85691 18.7409 5.23191 18.1189 4.92691 17.3309C4.73091 16.7969 4.62491 16.2319 4.61591 15.6619C4.57291 14.7119 4.56291 14.4439 4.56291 12.0079C4.56291 9.57088 4.56291 9.32188 4.61591 8.35288C4.62291 7.77688 4.72691 7.20688 4.92691 6.66588C5.23191 5.87688 5.85691 5.25588 6.64591 4.95388C7.17991 4.75588 7.74591 4.65088 8.31491 4.64288C9.26591 4.59988 9.53291 4.58788 11.9699 4.58788C14.4069 4.58788 14.6569 4.58788 15.6239 4.64288C16.1949 4.64988 16.7589 4.75488 17.2939 4.95388C18.0799 5.25688 18.7009 5.87888 19.0059 6.66588C19.2019 7.19988 19.3079 7.76488 19.3169 8.33488C19.3599 9.28588 19.3709 9.55288 19.3709 11.9899C19.3709 14.4259 19.3709 14.6879 19.3279 15.6439H19.3169V15.6429Z" fill="#8F9BB3"/>
</svg>
